<?xml version="1.0" encoding="utf-8"?>
<!-- Generator: Adobe Illustrator 26.0.0, SVG Export Plug-In . SVG Version: 6.00 Build 0)  -->
<svg version="1.1" xmlns="http://www.w3.org/2000/svg" xmlns:xlink="http://www.w3.org/1999/xlink" x="0px" y="0px"
	 viewBox="0 0 4298.67 1280" style="enable-background:new 0 0 4298.67 1280;" xml:space="preserve">
<style type="text/css">
	.st0{display:none;}
	.st1{display:inline;fill-rule:evenodd;clip-rule:evenodd;fill:#F2F1ED;}
	.st2{fill-rule:evenodd;clip-rule:evenodd;fill:#5C2200;}
	.st3{fill:#5C2200;}
</style>
<g id="Background" class="st0">
	<rect x="480" y="195.84" class="st1" width="3424" height="956.16"/>
</g>
<g id="Edit_here">
	<path id="Logo" class="st2" d="M844.53,510.28c0.34,0.32,0.67,0.32,1.01,0.64c17.19-18.76,57.96-44.84,85.93-51.52
		c-25.61,11.45-63.02,35.94-78.86,53.74c35.72,8.59,112.55-6.04,162.09-59.15c5.39-5.72,10.11-11.77,13.82-18.13
		c-4.38-0.64-8.76-1.91-13.14-3.18c-5.39-1.59-10.45-3.18-12.81-1.91c-11.46,5.41-22.58,7.63-32.35,5.41
		c-10.11-1.91-18.53-7.63-24.94-17.49c-11.46-17.49-21.57-23.22-29.99-28.3c-7.08-4.45-13.48-7.95-18.87-15.9
		c-8.09-11.13-8.76-19.72-9.77-27.67c-0.34-6.36-1.01-12.08-6.74-18.13c-6.4-6.36-7.08-13.99-4.72-21.63
		c-8.76,5.41-16.85,12.4-24.94,21.31c-38.08,43.25-39.09,104.95-30.67,142.15c9.1-13.67,13.14-38.16,15.5-55.97
		c-0.34,20.04-4.38,42.3-10.78,66.15c0.34,1.27,1.01,2.23,1.35,3.5c14.49-19.72,19.88-46.43,23.25-74.42
		c1.35,25.76-5.05,54.7-16.51,88.73c1.68,2.86,3.37,5.41,4.72,7c14.15-18.76,46.17-54.7,59.31-75.37
		C883.62,453.99,853.96,491.2,844.53,510.28L844.53,510.28z M696.59,339.83c-7.08,0.32-15.5-33.07-9.44-57.56
		c6.07-24.17,18.53-45.79,38.75-53.43c0.34,8.59-11.46,19.72-15.5,33.71c-2.02,7.31-5.05,21.63-7.75,36.89
		c-2.7,0.64-5.05,1.59-7.41,3.18c2.36-0.32,4.72-0.32,6.74,0.32c-0.34,1.59-0.67,3.18-1.01,4.77c-3.37,0.32-7.08,0.95-10.45,1.91
		c3.37,0.32,6.74,0.64,10.11,1.91C698.61,322.97,697.26,333.47,696.59,339.83L696.59,339.83z M698.61,341.1
		c1.01-14.63,10.45-38.16,13.14-59.15c0.34-2.54,1.01-4.77,1.35-7c6.4-0.64,12.81-2.23,18.87-4.45c-6.07,0.32-12.13,0.95-17.86,0
		c0.67-2.23,1.01-4.13,1.68-6.04c3.37,0.64,6.74,0.64,10.45,0c-3.37,0-6.74-0.64-9.77-1.59c4.38-14.31,10.45-26.08,13.14-32.76
		c14.49-1.27,32.69,40.39,26.96,61.38C749.83,315.66,713.44,357.63,698.61,341.1L698.61,341.1z M821.28,329.97
		c3.71,2.86,23.93-12.08,31.68-28.3c8.09-16.22,11.12-33.71,3.37-46.11c-4.38,4.45-3.03,15.58-7.08,25.44
		c-2.02,4.77-7.08,14.31-12.47,23.85c1.01,1.27,1.68,2.86,2.36,4.77c-1.35-1.27-2.36-2.23-3.71-2.54c-0.67,0.95-1.35,1.91-2.02,2.86
		c2.02,1.91,3.71,3.5,5.39,5.72c-2.02-1.27-4.38-2.54-6.74-3.18C828.01,319.79,823.97,326.15,821.28,329.97L821.28,329.97z
		 M819.59,329.97c6.07-8.9,11.79-25.76,19.88-38.8c1.01-1.59,1.68-2.86,2.36-4.45c-3.03-3.18-6.07-6.68-8.42-10.49
		c3.37,2.86,6.4,5.72,10.11,7.31c0.67-1.27,1.35-2.54,1.68-3.82c-2.02-1.27-4.04-2.54-5.73-4.45c2.02,1.59,4.04,2.54,6.4,3.18
		c4.04-9.86,6.07-18.76,7.75-23.85c-7.75-6.68-37.41,9.22-43.81,23.22C802.4,294.35,803.41,333.15,819.59,329.97L819.59,329.97z
		 M1008.98,496.93c-3.71-5.41,22.92-28.94,48.19-36.25c25.27-7,51.22-7.95,68.41,4.77c-7.75,4.77-23.59,0.64-38.75,4.45
		c-7.75,1.59-22.58,6.68-37.41,11.77c-2.02-1.59-4.38-3.18-6.74-4.13c1.35,1.91,2.36,3.5,3.03,5.41c-1.68,0.64-3.37,1.27-5.05,1.91
		c-2.02-2.86-4.38-5.41-6.74-7.95c1.35,2.86,2.7,6.04,3.03,9.22C1025.49,490.25,1015.04,494.38,1008.98,496.93L1008.98,496.93z
		 M1008.64,499.47c14.15-6.68,40.44-10.81,61.33-18.76c2.36-0.95,4.38-1.91,6.74-2.54c4.04,5.09,8.76,9.22,13.82,13.04
		c-3.37-4.77-7.08-9.22-9.1-14.63c2.36-0.32,4.38-0.95,6.4-1.59c1.35,3.18,3.03,6.04,5.05,8.59c-1.35-2.86-2.36-5.72-3.37-8.9
		c15.5-3.5,29.32-4.13,36.73-5.41c8.42,11.13-20.56,47.07-42.8,52.79C1057.84,528.73,1001.23,519.82,1008.64,499.47L1008.64,499.47z
		 M1080.42,594.24c-1.01,4.45,23.25,13.36,42.12,11.77c18.87-1.91,36.06-7.95,43.81-20.67c-6.4-1.27-15.84,5.72-26.96,7
		c-5.39,0.95-16.51,1.27-27.97,1.59c-1.01,1.59-2.02,3.18-3.37,4.45c0.67-1.59,0.67-2.86,0.67-4.45c-1.35,0.32-2.7,0.32-3.71,0.32
		c-0.67,2.23-1.35,4.77-2.7,7c0.34-2.54,0.34-4.77-0.34-7C1093.23,594.24,1085.14,594.24,1080.42,594.24L1080.42,594.24z
		 M1079.41,592.65c11.46,0.64,29.66-3.18,45.83-3.18c1.68,0,3.37,0,5.39,0c1.01-4.45,3.03-8.27,5.05-12.08
		c-0.67,3.82-1.69,7.95-1.69,11.77c1.69,0,3.03-0.32,4.72-0.64c0-2.23,0.34-4.45,1.01-7c-0.34,2.54,0,4.77,0.34,7
		c10.78-1.59,20.22-4.45,25.61-5.72c2.36-9.54-26.96-25.76-43.13-23.85C1103.67,560.85,1068.62,580.88,1079.41,592.65
		L1079.41,592.65z M1021.11,830.84c3.03-5.41,38.08,4.13,57.29,21.31c19.21,17.17,33.02,38.16,29.99,58.2
		c-8.42-3.5-12.47-18.76-23.25-29.26c-5.73-5.41-17.52-14.95-29.99-24.81c0.67-2.54,0.67-4.77,0.67-7.63
		c-1.01,2.23-2.02,3.82-3.37,5.41c-1.68-0.95-3.03-2.23-4.38-3.18c1.69-3.18,3.03-6.36,3.71-9.54c-2.02,2.54-4.04,5.09-6.74,7
		C1035.6,841.34,1026.5,834.66,1021.11,830.84L1021.11,830.84z M1018.75,832.12c13.14,8.27,29.99,27.67,47.85,40.39
		c2.02,1.59,3.71,2.86,5.73,4.45c-2.7,5.72-4.38,11.77-5.39,17.81c2.7-5.09,5.05-10.49,9.1-14.63c1.35,1.59,3.03,2.86,4.38,4.45
		c-2.02,2.54-3.71,5.41-5.05,8.59c1.68-2.86,4.04-5.41,6.4-7.31c10.78,10.81,18.53,21.63,23.25,27.03
		c-5.73,12.72-53.24,6.68-69.42-8.59C1016.39,886.5,996.17,835.93,1018.75,832.12L1018.75,832.12z M967.53,938.02
		c-4.38,1.59-0.67,25.76,10.45,40.07c10.78,14.63,25.27,25.76,40.44,25.76c-2.02-5.72-12.81-10.18-19.55-18.45
		c-3.71-4.13-9.77-13.04-15.5-22.26c-2.02,0.32-4.04,0-5.73-0.32c1.35-0.32,3.03-0.95,4.04-1.91c-0.67-0.95-1.35-1.91-1.69-2.86
		c-2.7,0.64-5.05,1.27-7.75,1.27c2.36-0.95,4.38-1.91,6.07-3.82C973.93,948.51,969.89,941.83,967.53,938.02L967.53,938.02z
		 M968.54,936.43c5.05,9.54,17.86,22.58,25.61,35.94c1.01,1.27,2.02,2.86,2.7,4.13c4.72-1.27,9.44-1.59,13.82-1.59
		c-4.04,1.27-8.09,2.23-11.79,4.45c1.01,1.27,2.02,2.23,3.03,3.5c2.02-1.27,4.38-2.23,6.74-2.86c-2.02,1.27-4.04,2.23-6.07,3.82
		c7.08,8.27,14.49,14.31,18.2,18.13c9.77-2.86,10.11-34.98,0.34-47.07C1009.65,940.24,973.93,921.8,968.54,936.43L968.54,936.43z
		 M720.52,1007.66c6.74,0,15.5,33.39,9.1,57.56c-6.07,24.49-18.2,46.11-38.42,53.74c-0.67-8.59,11.12-19.72,15.5-33.71
		c2.02-7.31,5.05-21.94,7.75-36.89c2.36-0.64,5.05-1.91,7.08-3.18c-2.36,0.32-4.38,0-6.4-0.32c0.34-1.59,0.34-3.18,0.67-4.77
		c3.71-0.32,7.41-0.95,10.78-1.91c-3.37-0.32-6.74-0.64-10.11-2.23C718.49,1024.83,719.84,1014.34,720.52,1007.66L720.52,1007.66z
		 M718.49,1006.39c-1.01,14.95-10.45,38.48-13.48,59.47c-0.34,2.23-0.67,4.45-1.01,6.68c-6.74,0.95-12.81,2.54-18.87,4.77
		c6.07-0.32,12.13-0.95,17.86,0c-0.67,1.91-1.01,4.13-1.68,6.04c-3.37-0.64-7.08-0.64-10.45-0.32c3.37,0.32,6.74,0.95,9.77,1.91
		c-4.38,14.31-10.45,25.76-13.14,32.44c-14.49,1.59-33.02-40.07-27.3-61.06C667.27,1031.83,703.33,989.85,718.49,1006.39
		L718.49,1006.39z M595.83,1017.52c-3.71-2.86-24.26,12.4-32.01,28.62c-7.75,16.22-10.78,33.39-3.03,46.11
		c4.38-4.77,2.7-15.9,7.08-25.44c2.02-4.77,7.08-14.31,12.47-23.85c-1.01-1.27-2.02-2.86-2.36-4.77c1.01,0.95,2.36,1.91,3.71,2.54
		c0.67-0.95,1.35-1.91,1.68-3.18c-1.68-1.59-3.71-3.5-5.05-5.41c2.02,1.27,4.04,2.54,6.74,3.18
		C589.09,1028.02,593.13,1021.65,595.83,1017.52L595.83,1017.52z M597.51,1017.84c-6.4,8.59-11.79,25.76-19.88,38.8
		c-1.01,1.59-1.68,2.86-2.7,4.45c3.37,2.86,6.07,6.36,8.42,10.18c-3.03-2.54-6.07-5.41-9.77-7.31c-0.67,1.27-1.35,2.86-2.02,4.13
		c2.36,0.95,4.04,2.54,6.07,4.13c-2.02-1.27-4.38-2.23-6.4-2.86c-4.04,9.54-6.07,18.76-7.75,23.53c7.41,7,37.07-8.9,43.47-23.22
		C614.7,1053.14,613.69,1014.66,597.51,1017.84L597.51,1017.84z M408.13,850.56c3.37,5.72-22.92,29.26-48.19,36.57
		c-25.61,7-51.56,7.63-68.41-4.77c7.41-4.77,23.59-0.95,38.75-4.45c7.41-1.91,22.24-6.68,37.41-12.08c2.02,1.91,4.04,3.18,6.74,4.45
		c-1.35-1.91-2.7-3.82-3.37-5.41c1.68-0.64,3.37-1.27,5.05-1.91c2.02,2.86,4.38,5.41,7.08,7.95c-1.35-3.18-2.7-6.04-3.03-9.54
		C391.28,857.24,401.72,853.42,408.13,850.56L408.13,850.56z M408.13,848.34c-14.15,6.68-40.1,10.49-61,18.76
		c-2.36,0.95-4.72,1.59-7.08,2.54c-3.71-5.09-8.42-9.22-13.48-13.36c3.37,4.77,7.08,9.54,8.76,14.63c-2.02,0.64-4.04,1.27-6.07,1.59
		c-1.35-2.86-3.03-5.72-5.39-8.59c1.68,3.18,2.7,6.04,3.37,9.22c-15.16,3.18-28.98,4.13-36.39,5.41
		c-8.76-11.13,20.56-47.07,42.46-52.79C359.26,819.08,415.88,827.66,408.13,848.34L408.13,848.34z M336.69,753.57
		c0.67-4.45-23.25-13.36-42.12-11.77c-18.87,1.91-36.06,7.95-43.81,20.35c6.4,1.27,15.84-5.41,26.62-6.68
		c5.73-0.95,16.85-1.59,28.31-1.59c0.67-1.91,1.68-3.18,3.03-4.77c-0.34,1.59-0.34,3.18-0.34,4.45c1.35,0,2.36,0,3.71,0
		c0.67-2.54,1.35-4.77,2.36-7c0,2.23,0,4.77,0.67,7C323.88,753.25,331.63,753.57,336.69,753.57L336.69,753.57z M337.36,755.16
		c-11.12-0.95-29.65,3.18-45.83,3.18c-1.68,0-3.37,0-5.05,0c-1.01,4.13-3.03,8.27-5.39,12.08c1.01-3.82,2.02-7.95,1.69-11.77
		c-1.35,0-3.03,0.32-4.38,0.32c0,2.54-0.34,4.77-1.01,7c0.34-2.23,0-4.45-0.34-6.68c-11.12,1.59-20.56,4.45-25.61,5.72
		c-2.7,9.54,26.96,25.76,43.13,23.85C313.43,786.64,348.48,766.6,337.36,755.16L337.36,755.16z M396,516.64
		c-3.37,5.72-38.08-4.13-57.29-21.31c-19.21-17.17-33.02-37.84-29.99-58.2c8.09,3.82,12.47,19.08,23.25,29.58
		c5.39,5.41,17.52,14.95,29.99,24.81c-0.67,2.23-1.01,4.77-0.67,7.31c1.01-1.91,2.02-3.82,3.37-5.09c1.35,0.95,2.7,1.91,4.04,3.18
		c-1.35,2.86-2.7,6.36-3.71,9.54c2.02-2.54,4.04-5.09,7.08-7.31C381.5,506.47,390.6,512.83,396,516.64L396,516.64z M398.35,515.69
		c-13.14-8.27-29.99-27.67-47.85-40.71c-2.02-1.27-4.04-2.86-5.73-4.13c2.7-5.72,4.04-11.77,5.05-17.81
		c-2.36,5.09-5.05,10.18-8.76,14.63c-1.68-1.59-3.03-2.86-4.72-4.45c2.36-2.54,4.04-5.41,5.39-8.59c-2.02,2.86-4.04,5.09-6.74,7.31
		c-10.78-10.81-18.2-21.63-23.25-27.03c6.07-12.72,53.58-6.68,69.76,8.27C400.71,460.99,420.93,511.87,398.35,515.69L398.35,515.69z
		 M449.24,409.79c4.72-1.59,1.01-25.76-10.11-40.39c-11.12-14.31-25.27-25.44-40.78-25.44c2.02,5.72,13.14,10.18,19.88,18.45
		c3.37,4.13,9.44,13.04,15.5,22.26c2.02-0.32,3.71,0,5.73,0.32c-1.68,0.32-3.03,0.95-4.38,1.59c0.67,1.27,1.35,2.23,2.02,3.18
		c2.36-0.64,5.05-1.27,7.75-1.59c-2.36,1.27-4.38,2.23-6.07,4.13C443.17,399.29,447.22,405.66,449.24,409.79L449.24,409.79z
		 M708.38,650.85c-105.81-131.02-37.41-243.6,78.52-350.77C759.27,423.15,892.04,523.96,708.38,650.85L708.38,650.85z
		 M713.44,625.41c-9.77-83.32,3.03-167.6,36.39-251.87C755.23,462.26,746.8,547.49,713.44,625.41L713.44,625.41z M687.49,662.3
		c-173.21,20.99-242.3-90.95-282.73-239.47C503.83,507.1,662.89,448.91,687.49,662.3L687.49,662.3z M666.6,645.76
		c-81.55-34.03-152.32-86.5-212.98-155.83C537.87,530,611.67,579.29,666.6,645.76L666.6,645.76z M687.49,685.51
		c-67.4,152.01-204.89,152.33-361.25,111.31C452.95,757.7,479.23,598.69,687.49,685.51L687.49,685.51z M661.54,694.1
		c-71.78,49.61-155.35,81.09-249.37,96.04C491.03,741.48,573.25,705.86,661.54,694.1L661.54,694.1z M708.38,696.96
		c105.81,131.02,37.74,243.28-78.18,350.77C657.84,924.66,525.06,823.53,708.38,696.96L708.38,696.96z M703.67,722.4
		c9.44,83.32-3.37,167.28-36.39,251.87C661.88,885.54,670.3,800.31,703.67,722.4L703.67,722.4z M729.61,685.51
		c173.21-20.99,242.29,90.95,282.73,239.15C913.27,840.7,754.21,898.9,729.61,685.51L729.61,685.51z M750.51,702.05
		c81.55,34.03,151.98,86.5,212.98,155.83C879.24,817.81,805.44,768.51,750.51,702.05L750.51,702.05z M729.61,662.3
		c67.4-152.01,204.55-152.33,361.25-111.31C964.16,590.11,937.87,749.11,729.61,662.3L729.61,662.3z M755.56,653.71
		c71.78-49.61,155.01-81.09,249.37-96.36C926.08,606.32,843.85,641.94,755.56,653.71L755.56,653.71z M626.5,481.03
		c0.34-0.32,0.67-0.32,1.01-0.64c-8.42-23.53-12.13-69.65-4.38-96.04c-2.02,27.03,1.35,69.33,9.77,91.27
		c25.95-24.81,50.89-95.09,26.96-161.87c-2.7-7.63-6.07-14.31-9.77-20.35c-2.7,3.18-6.07,6.36-9.44,9.22c-4.04,3.5-8.09,7-8.42,9.22
		c-0.34,12.4-4.04,22.26-10.78,29.26c-7.08,7.31-16.51,11.45-28.64,11.77c-21.57,0.64-32.35,5.72-41.11,10.18
		c-7.41,3.82-14.15,7-23.93,7.63c-14.15,0.95-22.58-2.86-30.33-6.04c-6.07-2.54-11.79-5.09-19.88-3.5c-9.1,1.91-16.51-1.27-22.24-7
		c0.67,9.86,3.03,20.35,7.08,31.17c20.56,52.79,76.83,84.27,115.25,96.04c-8.42-13.99-28.64-29.58-43.81-40.71
		c18.2,10.18,36.73,24.81,55.27,41.98c1.35,0.32,2.7,0.32,3.71,0.64c-10.45-21.63-32.35-39.43-56.61-55.97
		c24.6,11.77,47.85,31.17,73.13,57.88c3.71,0,6.74-0.32,9.1-0.64c-10.11-20.99-27.3-64.88-39.43-86.18
		C594.48,420.6,613.69,463.53,626.5,481.03L626.5,481.03z M490.35,644.49c0-0.32,0-0.64,0-0.95c-25.61-5.09-69.76-25.12-89.98-44.52
		c23.25,14.95,64.03,33.39,88.63,37.53C478.89,602.83,427,547.49,353.87,533.5c-8.42-1.59-16.18-2.23-23.59-2.23
		c1.68,3.82,2.36,8.27,3.37,12.4c1.35,5.09,2.36,10.18,4.72,11.45c10.78,6.68,18.2,14.63,21.23,23.53
		c3.37,9.22,2.36,19.08-3.71,29.26c-10.11,17.81-10.78,29.26-11.12,38.8c-0.34,7.95-0.34,14.95-5.05,23.53
		c-6.07,11.77-13.48,16.85-20.56,21.31c-5.39,3.82-10.45,7.31-13.14,14.95c-2.7,8.27-9.44,12.72-17.52,14.63
		c9.44,4.13,19.88,7.63,32.01,9.54c58.97,9.54,115.92-20.67,145.92-45.79c-17.19-0.64-41.45,8.27-59.31,15.26
		c18.53-9.86,41.11-17.81,66.05-24.49c1.01-0.95,1.69-1.59,2.7-2.54c-25.27-2.23-52.57,6.68-79.87,18.13
		c22.92-13.99,52.57-23.22,89.64-30.85c2.02-2.86,3.37-5.41,4.04-7.63c-24.26-2.23-73.13-10.18-98.74-10.81
		C419.25,640.67,468.11,646.39,490.35,644.49L490.35,644.49z M572.58,837.2c-0.34,0-0.67-0.32-1.01-0.32
		c-17.52,18.45-57.96,44.52-85.93,51.52c25.61-11.77,62.68-35.94,78.86-53.74c-35.72-8.59-112.89,6.04-162.09,58.83
		c-5.73,6.04-10.11,12.08-13.82,18.13c4.38,0.64,8.76,2.23,13.14,3.5c5.39,1.59,10.45,3.18,12.81,1.91
		c11.46-5.72,22.24-7.63,32.35-5.72c10.11,2.23,18.53,7.95,24.94,17.81c11.12,17.17,21.23,23.22,29.99,28.3
		c7.08,4.13,13.48,7.95,18.87,15.9c7.75,11.13,8.76,19.72,9.44,27.67c0.67,6.36,1.35,12.08,7.08,18.13
		c6.07,6.36,6.74,13.99,4.72,21.63c8.42-5.72,16.85-12.72,24.6-21.63c38.42-43.25,39.09-104.63,31-141.84
		c-9.1,13.67-13.14,38.16-15.84,55.97c0.34-20.04,4.72-42.61,10.78-66.15c-0.34-1.27-0.67-2.54-1.01-3.5
		c-14.83,19.4-20.22,46.43-23.25,74.42c-1.35-26.08,5.05-54.7,16.51-88.73c-1.68-3.18-3.37-5.41-5.05-7
		c-13.82,18.44-45.83,54.7-58.97,75.37C533.15,893.81,562.8,856.6,572.58,837.2L572.58,837.2z M790.61,866.78
		c-0.34,0.32-0.67,0.32-1.01,0.64c8.42,23.22,12.13,69.65,4.38,95.72c2.02-26.71-1.68-69.01-10.11-90.95
		c-25.61,24.81-50.55,94.77-26.96,161.87c2.7,7.31,6.07,14.31,9.77,20.35c3.03-3.5,6.4-6.36,9.77-9.22c4.04-3.5,8.09-7,8.09-9.22
		c0.67-12.4,4.38-22.26,11.12-29.58c6.74-7,16.51-11.13,28.64-11.45c21.57-0.64,32.01-5.72,41.11-10.18
		c7.41-3.82,13.82-7,23.93-7.63c14.15-0.95,22.58,2.54,30.33,6.04c6.07,2.54,11.46,5.09,19.88,3.18c9.1-1.59,16.51,1.59,22.24,7.31
		c-0.67-9.86-3.03-20.35-7.41-31.17c-20.56-52.79-76.5-84.27-114.91-96.36c8.09,14.31,28.64,29.89,43.81,41.02
		c-18.2-10.49-36.73-25.12-55.6-41.98c-1.01-0.32-2.36-0.64-3.71-0.64c10.78,21.63,32.69,39.43,56.61,55.97
		c-24.26-11.77-47.52-31.48-73.13-57.88c-3.37,0-6.4,0.32-8.76,0.64c10.11,20.67,27.3,64.88,39.43,86.18
		C822.62,926.89,803.41,884.27,790.61,866.78L790.61,866.78z M926.42,703.32c0,0.32,0,0.64,0.34,0.95
		c25.61,4.77,69.76,25.12,89.98,44.52c-23.59-15.26-64.36-33.39-88.63-37.53c9.77,33.39,61.67,89.04,135.13,103.04
		c8.09,1.59,16.18,2.23,23.59,2.23c-1.69-4.13-2.7-8.27-3.71-12.4c-1.01-5.41-2.36-10.18-4.38-11.45
		c-10.78-6.68-18.2-14.63-21.57-23.85c-3.03-8.9-2.02-18.76,3.71-28.94c10.45-18.13,10.78-29.26,11.12-38.8
		c0.34-7.95,0.67-14.95,5.05-23.53c6.4-11.77,13.82-16.85,20.89-21.63c5.39-3.5,10.45-7,12.81-14.63
		c3.03-8.27,9.77-12.72,17.86-14.63c-9.44-4.13-20.22-7.63-32.35-9.54c-58.64-9.54-115.59,20.35-145.58,45.79
		c16.85,0.64,41.45-8.27,59.31-15.26c-18.53,9.86-41.45,17.49-66.39,24.49c-0.67,0.64-1.68,1.59-2.36,2.54
		c25.27,2.23,52.57-6.68,79.87-18.13c-23.25,13.99-52.91,23.22-89.64,30.85c-2.02,2.86-3.37,5.41-4.04,7.63
		c23.93,1.91,73.13,10.18,98.74,10.49C997.86,707.14,948.99,701.41,926.42,703.32L926.42,703.32z M448.23,411.38
		c-4.72-9.86-17.52-22.9-25.61-35.94c-0.67-1.59-1.68-2.86-2.7-4.13c-4.38,0.95-9.1,1.59-13.82,1.59c4.04-1.27,8.42-2.23,11.79-4.45
		c-0.67-1.27-1.68-2.23-2.7-3.5c-2.02,1.27-4.38,1.91-6.74,2.54c2.02-0.95,4.04-2.23,6.07-3.5c-7.08-8.27-14.49-14.31-18.2-18.13
		c-9.77,2.54-10.11,34.98-0.34,47.07C407.45,407.56,443.17,426.01,448.23,411.38L448.23,411.38z M1169.05,698.23
		c1.01,9.54,1.35,18.45-4.72,26.4c3.71,1.91,8.42,2.23,14.15,1.27c-3.03,4.13-7.41,6.68-13.48,7.31c6.07,5.41,5.39,15.26-3.37,30.85
		c1.01-13.67-1.35-21.63-7.08-22.9c-0.34,6.36-3.37,11.45-8.09,15.26c3.71-6.36,4.38-12.72,1.01-18.13
		c-8.42,7.31-16.85,6.68-24.94,0.95c8.09,0.32,15.84-0.95,22.58-8.27c-4.04-8.9-3.37-18.13-1.69-27.67
		c2.7,7.95,6.07,14.95,12.81,15.26C1165.34,714.13,1167.03,706.18,1169.05,698.23L1169.05,698.23z M1105.02,814.94
		c52.57-9.54,81.55-56.29,84.58-83.32c2.7-22.58-5.73-64.56-39.09-91.27c-11.12-1.91-22.24-1.59-24.94,5.41
		c-4.04,12.4-11.12,17.17-18.53,22.26c-5.73,3.5-11.46,7.63-15.84,16.22c-3.03,5.72-3.37,11.13-3.71,17.49
		c-0.34,11.13-0.67,24.17-12.81,44.84c-3.71,6.68-4.38,12.4-2.7,17.81c2.02,5.72,7.41,11.13,15.16,15.9
		c7.41,4.45,9.44,12.4,11.12,20.67C1099.63,806.36,1100.98,812.08,1105.02,814.94L1105.02,814.94z M916.31,1062.36
		c-8.09,5.41-16.18,10.18-26.62,9.22c0,4.13,2.36,8.27,6.07,12.4c-5.39-0.64-10.11-2.86-13.48-7.31
		c-2.02,7.63-11.46,12.08-29.99,12.72c12.81-6.04,19.21-12.08,17.52-17.49c-6.07,2.86-12.13,3.18-18.2,1.27
		c7.75-0.32,13.82-2.54,17.19-8.27c-10.78-3.18-14.49-10.49-13.48-20.04c3.71,7,9.1,12.72,18.87,14.31
		c6.07-7.63,15.16-11.77,24.94-15.26c-6.07,6.36-11.12,12.4-7.75,18.13C899.79,1067.13,908.22,1064.91,916.31,1062.36
		L916.31,1062.36z M777.47,1068.4c34.71,38.16,92.33,38.48,118.62,27.67c21.9-9.22,56.28-36.89,64.36-77.91
		c-4.04-9.86-9.77-19.08-17.52-17.49c-13.48,2.86-21.23-0.32-29.99-4.13c-6.07-2.54-12.47-5.41-22.58-4.77
		c-6.74,0.32-11.79,2.86-17.86,5.72c-10.45,5.41-22.58,11.45-47.85,12.08c-7.75,0.32-13.48,2.54-17.52,6.68
		c-4.04,4.45-6.4,11.45-7.08,20.04c-0.34,8.59-6.4,13.99-13.14,19.72C782.52,1059.82,777.8,1063.95,777.47,1068.4L777.47,1068.4z
		 M455.98,1037.87c-9.1-3.82-17.86-7.95-21.9-16.86c-3.71,1.91-6.4,5.72-8.09,11.13c-2.36-4.77-2.7-9.86-0.34-14.95
		c-7.75,2.23-16.51-3.18-26.62-18.13c12.13,7.63,20.56,9.86,24.6,5.41c-5.73-3.18-8.76-8.27-9.77-13.99
		c4.04,6.04,9.1,9.86,15.84,9.86c-2.36-10.49,2.36-16.85,11.79-20.99c-4.38,6.68-7.08,13.67-3.71,22.58
		c10.11,1.27,18.53,6.36,26.29,12.72c-8.76-1.91-16.85-2.86-20.56,2.54C443.17,1027.06,449.58,1032.47,455.98,1037.87
		L455.98,1037.87z M380.83,927.2c-17.52,47.7,10.78,95.09,34.04,110.99c19.55,13.36,62.01,27.35,103.46,13.67
		c7.41-8.27,12.81-17.49,7.41-22.9c-9.44-9.54-10.11-17.81-11.12-26.71c-0.67-6.04-1.35-13.04-6.74-20.67
		c-3.71-5.41-8.76-8.27-14.49-11.77c-9.77-5.72-21.57-12.72-34.71-33.07c-4.04-6.36-9.44-9.86-15.16-10.81
		c-6.07-1.27-13.82,0-21.9,4.13c-8.09,3.82-16.18,1.59-24.6-0.95C391.28,927.2,385.21,925.61,380.83,927.2L380.83,927.2z
		 M248.06,649.26c-1.01-9.22-1.35-18.44,4.72-26.08c-3.71-2.23-8.42-2.54-14.49-1.27c3.37-4.13,7.75-6.68,13.82-7.31
		c-6.07-5.41-5.39-15.26,3.37-30.85c-1.01,13.67,1.35,21.63,7.08,22.9c0.34-6.36,3.37-11.45,8.09-15.26
		c-3.71,6.36-4.72,12.4-1.01,17.81c8.42-7,16.51-6.36,24.94-0.64c-8.09-0.64-16.18,0.95-22.58,7.95c4.04,9.22,3.37,18.44,1.68,27.99
		c-2.7-7.95-6.07-15.26-12.81-15.58C251.76,633.67,250.08,641.62,248.06,649.26L248.06,649.26z M312.08,532.86
		c-52.57,9.22-81.89,56.29-84.92,83.32c-2.36,22.58,6.07,64.24,39.43,91.27c11.12,1.91,22.24,1.59,24.6-5.41
		c4.38-12.4,11.12-17.17,18.87-22.26c5.39-3.82,11.46-7.63,15.84-16.22c3.03-5.72,3.03-11.13,3.37-17.49
		c0.34-11.13,1.01-24.17,13.14-45.16c3.71-6.36,4.38-12.4,2.36-17.49c-2.02-5.72-7.08-11.13-14.83-15.9
		c-7.41-4.45-9.44-12.4-11.46-20.67C317.48,541.45,316.13,535.41,312.08,532.86L312.08,532.86z M500.8,285.44
		c8.09-5.72,16.18-10.49,26.29-9.22c0-4.13-2.02-8.27-6.07-12.4c5.39,0.32,10.11,2.86,13.82,7.31c2.02-7.63,11.12-12.08,29.99-12.72
		c-13.14,6.04-19.21,11.77-17.52,17.49c6.07-3.18,12.13-3.18,17.86-1.27c-7.75,0.32-13.82,2.54-16.85,8.27
		c10.78,3.18,14.49,10.18,13.14,20.04c-3.71-7-8.76-12.72-18.53-14.63c-6.4,7.95-15.5,12.08-24.94,15.58
		c6.07-6.36,11.12-12.72,7.75-18.45C516.97,280.36,508.89,282.9,500.8,285.44L500.8,285.44z M639.64,279.4
		c-34.71-38.16-92.67-38.8-118.62-27.67c-21.9,9.22-56.28,36.89-64.36,77.6c4.04,10.18,9.77,19.08,17.52,17.49
		c13.48-2.54,21.23,0.64,29.66,4.45c6.07,2.54,12.81,5.41,22.92,4.77c6.74-0.32,11.79-2.86,17.52-6.04
		c10.45-5.09,22.92-11.13,47.85-11.77c7.75-0.32,13.82-2.54,17.52-6.68c4.38-4.77,6.74-11.45,7.08-20.35
		c0.34-8.27,6.74-13.67,13.48-19.4C634.58,287.99,639.3,283.85,639.64,279.4L639.64,279.4z M740.73,659.11
		c75.82-85.23,182.65-117.35,312.39-108.44C946.64,594.24,872.16,670.56,740.73,659.11L740.73,659.11z M738.38,692.82
		c115.92,19.4,198.82,90.63,255.44,201.3C900.47,828.62,793.64,806.04,738.38,692.82L738.38,692.82z M706.02,707.77
		c40.1,104.31,16.18,207.98-56.95,309.43C662.55,908.44,629.87,809.54,706.02,707.77L706.02,707.77z M676.03,688.69
		c-75.49,85.23-182.65,117.03-312.39,108.13C470.47,753.57,544.61,677.24,676.03,688.69L676.03,688.69z M678.73,654.98
		c-115.92-19.4-198.82-90.95-255.44-201.3C516.3,519.19,623.46,541.77,678.73,654.98L678.73,654.98z M711.08,640.03
		c-40.44-104.31-16.18-207.98,56.95-309.43C754.55,439.37,787.24,538.27,711.08,640.03L711.08,640.03z M961.13,309.61
		c9.1,3.82,17.52,8.27,21.57,17.17c4.04-1.91,6.74-5.72,8.42-11.13c2.36,4.77,2.7,9.54,0,14.95c8.09-2.23,16.85,3.18,26.62,18.13
		c-11.79-7.63-20.56-9.86-24.6-5.72c5.73,3.5,8.76,8.27,10.11,14.31c-4.04-6.36-9.44-10.18-16.18-9.86
		c2.36,10.49-2.02,16.86-11.46,20.67c4.38-6.36,7.08-13.36,3.71-22.58c-10.45-0.95-18.53-6.36-26.62-12.4
		c8.76,1.91,17.19,2.54,20.89-2.86C973.93,320.74,967.53,315.34,961.13,309.61L961.13,309.61z M1035.94,420.28
		c17.86-47.38-10.78-94.77-33.7-110.67c-19.55-13.36-62.01-27.67-103.46-13.67c-7.41,8.27-12.81,17.17-7.41,22.9
		c9.1,9.54,10.11,17.81,10.78,26.4c0.67,6.36,1.35,13.04,7.08,20.99c3.71,5.41,8.76,8.27,14.49,11.77
		c9.77,5.72,21.57,12.72,34.71,33.07c4.04,6.04,9.1,9.86,14.83,10.81c6.4,1.27,13.82-0.32,22.24-4.13
		c7.75-4.13,15.84-1.59,24.6,0.95C1025.83,420.28,1031.56,422.19,1035.94,420.28L1035.94,420.28z"/>
	<g>
		<path class="st3" d="M1293.77,1020.86c0-3.2,3.52-26.11,10.57-68.74c7.05-42.62,11.15-144.7,12.33-306.22
			c-1.18-95.5-4.99-164.24-11.45-206.23c-6.47-41.97-9.69-65.21-9.69-69.7c0-3.85,1.46-6.56,4.4-8.17c2.93-1.59,9.69-2.4,20.25-2.4
			h103.91l53.72-2.89c22.89-1.92,40.8-2.88,53.72-2.88c59.29,0,111.24,14.9,155.86,44.71c44.61,29.8,78.95,70.67,103.03,122.59
			c24.06,51.92,36.1,110.25,36.1,174.98c0,65.38-11.31,124.03-33.9,175.95c-22.61,51.92-55.34,92.63-98.18,122.1
			c-42.86,29.49-93.93,44.22-153.22,44.22c-12.92,0-29.94-0.64-51.08-1.92c-27.01-1.29-56.07-1.92-87.18-1.92h-89.82
			C1300.22,1034.31,1293.77,1029.84,1293.77,1020.86z M1500.26,987.68c4.98,8.03,16.29,12.02,33.9,12.02
			c27.59,0,48.28-13.13,62.08-39.42c13.79-26.27,22.74-60.57,26.86-102.88c4.1-42.3,6.16-96.14,6.16-161.52
			c0-65.38-2.06-119.22-6.16-161.52c-4.11-42.3-13.21-76.75-27.3-103.35c-14.09-26.59-35.53-39.9-64.28-39.9
			c-16.44,0-27.01,1.92-31.7,5.77c-4.71,3.85-7.04,12.83-7.04,26.92v521.1C1492.78,965.42,1495.27,979.68,1500.26,987.68z"/>
		<path class="st3" d="M1993.83,1012.68c-42.27-23.39-74.12-55.91-95.55-97.59c-21.43-41.66-32.14-89.73-32.14-144.21
			c0-50.63,9.83-96.78,29.5-138.45c19.66-41.66,51.52-75.14,95.55-100.47c44.03-25.31,100.67-37.98,169.95-37.98
			c38.74,0,72.94,6.25,102.59,18.75c29.64,12.5,52.4,29.8,68.25,51.92c15.85,22.11,23.77,46.96,23.77,74.51
			c0,44.22-20.25,83.64-60.76,118.25c-40.51,34.61-118.59,52.88-234.24,54.8c8.21,44.87,25.39,79,51.52,102.39
			c26.11,23.41,59.44,35.09,99.95,35.09c38.15,0,67.8-5.6,88.94-16.83c21.14-11.21,37.28-27.72,48.43-49.51
			c2.93-5.77,5.86-10.73,8.81-14.9c2.93-4.16,5.28-6.25,7.04-6.25c4.1,0,6.89,0.96,8.37,2.88c1.46,1.92,2.2,5.45,2.2,10.58
			c0,19.23-8.08,42.47-24.22,69.7c-16.15,27.25-41.39,51.12-75.73,71.63c-34.34,20.51-77.05,30.77-128.12,30.77
			C2087.46,1047.77,2036.1,1036.07,1993.83,1012.68z M2056.35,774.72c36.39-1.28,66.33-9.13,89.82-23.55
			c23.48-14.42,40.65-32.36,51.52-53.84c10.86-21.47,16.29-43.74,16.29-66.82c0-25.63-6.03-47.91-18.05-66.82
			c-12.04-18.9-26.86-28.36-44.47-28.36c-31.12,0-54.9,20.04-71.33,60.09c-16.44,40.07-24.65,91.5-24.65,154.31L2056.35,774.72z"/>
		<path class="st3" d="M2400.65,1020.86c0-3.85,3.66-28.68,11.01-74.51c7.33-45.82,11.3-149.82,11.89-311.99
			c-0.59-96.77-6.75-190.04-18.49-279.78l-2.64-22.11c0-14.09,8.21-21.15,24.66-21.15c12.91,0,24.35,1.44,34.34,4.32
			c9.98,2.89,21.71,7.54,35.22,13.94c10.57,4.49,19.66,8.02,27.3,10.58c7.62,2.57,16.14,3.84,25.54,3.84
			c16.43,0,30.08-1.76,40.95-5.29c10.85-3.52,17.75-5.29,20.69-5.29c5.86,0,8.81,3.22,8.81,9.61c0,0.65-1.18,11.22-3.52,31.73
			c-4.71,36.54-8.51,74.03-11.45,112.49c-2.95,38.46-4.71,87.49-5.28,147.1c0.58,162.17,4.54,266.17,11.89,311.99
			c7.33,45.83,11.01,70.67,11.01,74.51c0,8.98-6.47,13.46-19.37,13.46h-183.16C2407.11,1034.31,2400.65,1029.84,2400.65,1020.86z"/>
		<path class="st3" d="M2680.67,1023.74c0-2.55,3.81-20.67,11.45-54.32c7.62-33.65,11.74-111.05,12.33-232.19
			c-0.59-71.77-4.11-124.18-10.57-157.19c-6.47-33.01-9.99-51.44-10.57-55.28c0-5.77,1.61-9.93,4.84-12.5
			c3.22-2.55,9.82-3.85,19.81-3.85c20.54,0,43.73,3.22,69.56,9.61c19.95,5.77,37.56,8.65,52.84,8.65c16.43,0,30.08-1.76,40.95-5.29
			c10.85-3.52,17.75-5.29,20.69-5.29c5.86,0,8.81,2.57,8.81,7.69c0,5.14-1.18,12.5-3.52,22.11c-4.7,26.29-8.51,53.69-11.45,82.2
			c-2.94,28.53-4.71,64.9-5.28,109.12c0.58,121.14,4.4,198.54,11.45,232.19c7.05,33.65,10.57,51.77,10.57,54.32
			c0,7.06-6.47,10.58-19.37,10.58h-183.16C2687.12,1034.31,2680.67,1030.8,2680.67,1023.74z M2723.82,281.51
			c18.78-20.51,41.39-30.77,67.8-30.77c25.83,0,48.13,10.26,66.92,30.77c18.78,20.52,28.18,44.87,28.18,73.07
			c0,28.84-9.4,53.53-28.18,74.03c-18.79,20.52-41.1,30.77-66.92,30.77c-26.42,0-49.02-10.25-67.8-30.77
			c-18.8-20.51-28.18-45.19-28.18-74.03C2695.64,326.38,2705.02,302.02,2723.82,281.51z"/>
		<path class="st3" d="M2975.65,1002.11c-34.05-28.51-51.08-63.94-51.08-106.24c0-17.94,4.69-29.8,14.09-35.57
			c9.39-5.77,27.3-8.65,53.72-8.65c19.95,0,34.63,0.81,44.03,2.4c9.38,1.61,15.26,3.84,17.61,6.73c2.34,2.88,3.52,6.89,3.52,12.02
			v51.92c0,54.49,31.4,81.72,94.22,81.72c25.83,0,45.93-5.6,60.32-16.82c14.38-11.21,21.57-28.36,21.57-51.44
			c0-17.94-8.37-33-25.1-45.19c-16.73-12.17-43.01-26.59-78.81-43.26c-38.17-17.31-69.72-33.97-94.66-50
			c-24.96-16.02-46.38-37.5-64.28-64.42c-17.91-26.92-26.85-60.24-26.85-99.99c0-39.73,17.02-73.38,51.07-100.95
			c34.04-27.55,91.58-41.34,172.59-41.34c79.83,0,137.22,11.7,172.15,35.09c34.92,23.41,52.39,54.97,52.39,94.7
			c0,18.6-3.38,32.21-10.13,40.86c-6.75,8.65-15.27,14.11-25.53,16.35c-10.28,2.25-23.64,3.36-40.07,3.36
			c-15.85,0-31.26-3.84-46.23-11.54c-14.97-7.69-22.45-19.54-22.45-35.58c0-7.69,0.58-14.57,1.76-20.67
			c1.17-6.08,2.05-9.76,2.64-11.06c2.34-8.97,3.52-15.7,3.52-20.19c0-14.09-6.32-26.44-18.94-37.02
			c-12.63-10.58-34.78-15.86-66.48-15.86c-25.84,0-45.79,7.06-59.88,21.15c-14.09,14.11-21.14,29.8-21.14,47.11
			c0,16.67,5.73,31.09,17.17,43.26c11.45,12.18,25.98,22.59,43.59,31.25c17.61,8.65,41.68,19.08,72.21,31.25
			c41.08,16.67,74.26,32.06,99.51,46.15c25.23,14.11,46.96,32.85,65.16,56.24c18.19,23.41,27.3,52.4,27.3,87.01
			c0,60.9-25.98,101.12-77.93,120.66c-51.95,19.54-114.03,29.32-186.24,29.32C3067.81,1044.89,3009.69,1030.63,2975.65,1002.11z"/>
		<path class="st3" d="M3967.19,998.74c2.34,15.38,3.52,23.41,3.52,24.04c0,7.69-2.94,11.54-8.81,11.54h-184.04
			c-9.99,0-16.59-1.11-19.81-3.36c-3.23-2.24-4.84-5.29-4.84-9.13c0.58-3.85,4.25-22.91,11.01-57.21
			c6.74-34.28,10.13-86.05,10.13-155.27v-80.76c0-66.01-4.55-112.8-13.65-140.37c-9.11-27.55-23.05-41.34-41.83-41.34
			c-19.96,0-34.2,9.95-42.71,29.8c-8.51,19.88-13.36,48.41-14.53,85.57c1.17,148.71,5.28,244.69,12.33,287.95
			c7.05,43.26,10.57,66.82,10.57,70.67c0,8.98-6.47,13.46-19.37,13.46h-183.16c-12.92,0-19.37-4.48-19.37-13.46
			c0-3.85,3.66-28.68,11.01-74.51c7.33-45.82,11.3-149.82,11.89-311.99c-0.59-96.77-6.75-190.04-18.49-279.78l-2.64-22.11
			c0-14.09,8.21-21.15,24.66-21.15c12.91,0,24.35,1.44,34.34,4.32c9.98,2.89,21.71,7.54,35.22,13.94
			c10.57,4.49,19.66,8.02,27.3,10.58c7.62,2.57,16.14,3.84,25.54,3.84c16.43,0,30.08-1.76,40.95-5.29
			c10.85-3.52,17.75-5.29,20.69-5.29c5.86,0,8.81,3.22,8.81,9.61c0,1.29-1.18,12.18-3.52,32.69
			c-6.47,55.13-11.16,104.17-14.09,147.1c10.57-2.55,25.23-7.05,44.03-13.46c15.26-5.12,28.91-9.13,40.95-12.02
			c12.03-2.88,25.39-4.32,40.07-4.32c37.56,0,67.94,10.26,91.14,30.77c23.18,20.52,40.51,53.84,51.96,99.99
			c11.45,46.15,17.46,108.01,18.05,185.56C3950.46,877.93,3956.03,941.06,3967.19,998.74z"/>
	</g>
</g>
</svg>
